<svg width="264" height="51" viewBox="0 0 264 51" fill="none" xmlns="http://www.w3.org/2000/svg">
<g clip-path="url(#clip0_2_24)">
<path d="M0.868681 0.150111L23.154 22.4354C23.3522 22.6336 23.3522 22.9557 23.154 23.1555L0.868681 45.4408C0.548152 45.7613 0 45.5337 0 45.0815V0.509351C0 0.0556551 0.548152 -0.170419 0.868681 0.150111Z" fill="#12324C"/>
<path d="M74.664 0.15024L52.6171 22.1971C52.2873 22.5269 52.2873 23.0627 52.6171 23.3925L74.664 45.4394C74.9845 45.7599 75.5327 45.5323 75.5327 45.0801V0.509481C75.5327 0.0557848 74.9845 -0.170289 74.664 0.15024Z" fill="#578096"/>
<path d="M45.6024 0.15024L23.317 22.4356C23.1188 22.6338 23.1188 22.9558 23.317 23.1556L45.6024 45.4409C45.9229 45.7614 46.471 45.5338 46.471 45.0817V0.509481C46.471 0.0557848 45.9229 -0.170289 45.6024 0.15024Z" fill="#12324C"/>
</g>
<path d="M118.153 26.8226L118.115 10.9782L110.358 24.0075C110.158 24.3413 109.797 24.5478 109.408 24.5478H107.794C107.409 24.5478 107.051 24.3482 106.851 24.0178L99.1353 11.3327V26.8226C99.1353 27.1702 98.8531 27.4489 98.509 27.4489H93.8011C93.4535 27.4489 93.1748 27.1667 93.1748 26.8226V0.936073C93.1748 0.419856 93.5946 0 94.1108 0H97.8999C98.2268 0 98.5331 0.172075 98.7017 0.454273L108.703 17.0592L118.549 0.461152C118.717 0.175512 119.023 0.0034448 119.354 0.0034448H123.102C123.618 0.0034448 124.038 0.419856 124.038 0.936073L124.11 26.8226C124.11 27.1702 123.831 27.4524 123.484 27.4524H118.776C118.431 27.4524 118.149 27.1736 118.149 26.826L118.153 26.8226Z" fill="#12324C"/>
<path d="M148.698 21.5675H135.954L133.683 27.0635C133.586 27.2975 133.356 27.4524 133.105 27.4524H127.98C127.526 27.4524 127.223 26.9844 127.409 26.5714L139.003 0.557526C139.155 0.220265 139.488 0.00344849 139.857 0.00344849H144.916C145.284 0.00344849 145.618 0.220265 145.769 0.557526L157.401 26.5714C157.587 26.9844 157.284 27.4524 156.83 27.4524H151.551C151.296 27.4524 151.069 27.301 150.973 27.0635L148.701 21.5675H148.698ZM146.698 16.7426L142.345 6.23246L137.991 16.7426H146.695H146.698Z" fill="#12324C"/>
<path d="M178.477 27.4489C178.27 27.4489 178.077 27.3491 177.96 27.1805L172.853 19.8055H167.01V26.826C167.01 27.1736 166.728 27.4524 166.383 27.4524H161.283C160.936 27.4524 160.657 27.1702 160.657 26.826V0.939521C160.657 0.423305 161.077 0.00344849 161.593 0.00344849H172.537C174.966 0.00344849 177.079 0.409538 178.869 1.21828C180.659 2.03046 182.039 3.1799 183.006 4.67004C183.973 6.16019 184.458 7.92565 184.458 9.96298C184.458 12.0003 183.969 13.7623 182.988 15.2387C182.008 16.7151 180.617 17.8473 178.814 18.632L184.282 26.4681C184.571 26.8846 184.276 27.4524 183.77 27.4524H178.477V27.4489ZM176.539 6.41141C175.545 5.58891 174.096 5.17594 172.186 5.17594H167.01V14.7431H172.186C174.096 14.7431 175.545 14.3267 176.539 13.487C177.534 12.6507 178.029 11.4738 178.029 9.9561C178.029 8.43843 177.534 7.23048 176.539 6.40798V6.41141Z" fill="#12324C"/>
<path d="M194.776 5.17593H186.826C186.365 5.17593 185.993 4.80082 185.993 4.34311V0.836282C185.993 0.375129 186.368 0.00344849 186.826 0.00344849H209.078C209.54 0.00344849 209.911 0.37857 209.911 0.836282V4.34311C209.911 4.80426 209.536 5.17593 209.078 5.17593H201.129V26.8226C201.129 27.1702 200.847 27.4489 200.502 27.4489H195.402C195.055 27.4489 194.776 27.1667 194.776 26.8226V5.17593Z" fill="#12324C"/>
<path d="M213.947 0H219.047C219.395 0 219.673 0.282201 219.673 0.626345V26.8226C219.673 27.1702 219.391 27.4489 219.047 27.4489H213.947C213.599 27.4489 213.32 27.1667 213.32 26.8226V0.626345C213.32 0.278759 213.603 0 213.947 0Z" fill="#12324C"/>
<path d="M252.095 0.733032L240.776 26.8846C240.628 27.2287 240.291 27.4489 239.916 27.4489H234.871C234.496 27.4489 234.158 27.2253 234.01 26.8846L222.729 0.736477C222.578 0.388892 222.833 0.00344849 223.211 0.00344849H228.927C229.137 0.00344849 229.33 0.130779 229.413 0.3235L237.627 19.6093L245.959 0.320066C246.042 0.127345 246.231 0.00344849 246.441 0.00344849H251.607C251.985 0.00344849 252.24 0.392336 252.088 0.739922L252.095 0.733032Z" fill="#12324C"/>
<path d="M255.318 0H260.418C260.766 0 261.044 0.282201 261.044 0.626345V26.8226C261.044 27.1702 260.762 27.4489 260.418 27.4489H255.318C254.97 27.4489 254.692 27.1667 254.692 26.8226V0.626345C254.692 0.278759 254.974 0 255.318 0Z" fill="#12324C"/>
<path d="M98.9875 47.0158C98.0848 47.0158 97.2434 46.871 96.4633 46.5812C95.6943 46.2803 95.0257 45.8568 94.4573 45.3107C93.889 44.7647 93.4432 44.1239 93.12 43.3883C92.808 42.6528 92.6519 41.8448 92.6519 40.9644C92.6519 40.084 92.808 39.2761 93.12 38.5405C93.4432 37.805 93.889 37.1642 94.4573 36.6181C95.0368 36.072 95.7111 35.6541 96.48 35.3644C97.249 35.0635 98.0904 34.913 99.0042 34.913C100.018 34.913 100.932 35.0913 101.746 35.448C102.57 35.7934 103.261 36.3061 103.819 36.9859L102.08 38.5907C101.679 38.1338 101.233 37.7939 100.743 37.571C100.252 37.3369 99.7175 37.2199 99.138 37.2199C98.5919 37.2199 98.0904 37.3091 97.6335 37.4874C97.1765 37.6657 96.7809 37.922 96.4466 38.2563C96.1123 38.5907 95.8504 38.9863 95.6609 39.4432C95.4826 39.9001 95.3934 40.4072 95.3934 40.9644C95.3934 41.5216 95.4826 42.0287 95.6609 42.4856C95.8504 42.9426 96.1123 43.3382 96.4466 43.6725C96.7809 44.0068 97.1765 44.2632 97.6335 44.4415C98.0904 44.6198 98.5919 44.7089 99.138 44.7089C99.7175 44.7089 100.252 44.5975 100.743 44.3746C101.233 44.1406 101.679 43.7895 102.08 43.3215L103.819 44.9263C103.261 45.6061 102.57 46.1243 101.746 46.4809C100.932 46.8375 100.013 47.0158 98.9875 47.0158ZM116.998 47.0158C116.073 47.0158 115.215 46.8654 114.423 46.5645C113.643 46.2636 112.963 45.8401 112.384 45.294C111.816 44.7479 111.37 44.1071 111.047 43.3716C110.735 42.6361 110.578 41.8337 110.578 40.9644C110.578 40.0952 110.735 39.2928 111.047 38.5572C111.37 37.8217 111.821 37.1809 112.401 36.6348C112.98 36.0888 113.66 35.6653 114.44 35.3644C115.22 35.0635 116.067 34.913 116.981 34.913C117.906 34.913 118.753 35.0635 119.522 35.3644C120.302 35.6653 120.976 36.0888 121.545 36.6348C122.124 37.1809 122.575 37.8217 122.899 38.5572C123.222 39.2816 123.383 40.084 123.383 40.9644C123.383 41.8337 123.222 42.6417 122.899 43.3883C122.575 44.1239 122.124 44.7647 121.545 45.3107C120.976 45.8457 120.302 46.2636 119.522 46.5645C118.753 46.8654 117.911 47.0158 116.998 47.0158ZM116.981 44.7089C117.505 44.7089 117.984 44.6198 118.419 44.4415C118.864 44.2632 119.254 44.0068 119.589 43.6725C119.923 43.3382 120.179 42.9426 120.358 42.4856C120.547 42.0287 120.642 41.5216 120.642 40.9644C120.642 40.4072 120.547 39.9001 120.358 39.4432C120.179 38.9863 119.923 38.5907 119.589 38.2563C119.266 37.922 118.881 37.6657 118.435 37.4874C117.99 37.3091 117.505 37.2199 116.981 37.2199C116.457 37.2199 115.972 37.3091 115.527 37.4874C115.092 37.6657 114.707 37.922 114.373 38.2563C114.039 38.5907 113.777 38.9863 113.587 39.4432C113.409 39.9001 113.32 40.4072 113.32 40.9644C113.32 41.5105 113.409 42.0176 113.587 42.4856C113.777 42.9426 114.033 43.3382 114.356 43.6725C114.691 44.0068 115.081 44.2632 115.527 44.4415C115.972 44.6198 116.457 44.7089 116.981 44.7089ZM131.771 46.8152V35.1136H134.011L140.915 43.5388H139.828V35.1136H142.503V46.8152H140.28L133.359 38.3901H134.446V46.8152H131.771ZM155.469 47.0158C154.533 47.0158 153.635 46.8932 152.777 46.6481C151.919 46.3917 151.228 46.063 150.704 45.6618L151.624 43.6224C152.125 43.979 152.716 44.2743 153.396 44.5083C154.087 44.7312 154.783 44.8427 155.485 44.8427C156.02 44.8427 156.449 44.7925 156.773 44.6922C157.107 44.5808 157.352 44.4303 157.508 44.2409C157.664 44.0514 157.742 43.8341 157.742 43.5889C157.742 43.2769 157.619 43.0317 157.374 42.8534C157.129 42.6639 156.806 42.5135 156.405 42.4021C156.004 42.2795 155.558 42.168 155.067 42.0677C154.588 41.9563 154.103 41.8225 153.613 41.6665C153.134 41.5105 152.694 41.3099 152.292 41.0647C151.891 40.8196 151.563 40.4964 151.306 40.0952C151.061 39.694 150.938 39.1813 150.938 38.5572C150.938 37.8886 151.117 37.2812 151.473 36.7351C151.841 36.1779 152.387 35.7377 153.112 35.4145C153.847 35.0802 154.767 34.913 155.87 34.913C156.605 34.913 157.33 35.0022 158.043 35.1805C158.756 35.3477 159.386 35.604 159.932 35.9495L159.096 38.0056C158.55 37.6936 158.004 37.4651 157.458 37.3202C156.912 37.1642 156.377 37.0862 155.853 37.0862C155.329 37.0862 154.9 37.1475 154.566 37.2701C154.232 37.3927 153.992 37.5543 153.847 37.7548C153.702 37.9443 153.63 38.1672 153.63 38.4235C153.63 38.7244 153.752 38.9696 153.998 39.159C154.243 39.3374 154.566 39.4822 154.967 39.5937C155.368 39.7051 155.809 39.8166 156.288 39.928C156.778 40.0394 157.263 40.1676 157.742 40.3125C158.232 40.4574 158.678 40.6524 159.079 40.8976C159.481 41.1427 159.804 41.4659 160.049 41.8671C160.305 42.2683 160.433 42.7754 160.433 43.3883C160.433 44.0459 160.25 44.6476 159.882 45.1937C159.514 45.7398 158.962 46.18 158.227 46.5143C157.502 46.8487 156.583 47.0158 155.469 47.0158ZM173.835 47.0158C172.175 47.0158 170.876 46.5533 169.94 45.6284C169.004 44.7034 168.536 43.3828 168.536 41.6665V35.1136H171.244V41.5662C171.244 42.6807 171.472 43.4831 171.929 43.9734C172.386 44.4638 173.027 44.7089 173.852 44.7089C174.676 44.7089 175.317 44.4638 175.774 43.9734C176.231 43.4831 176.46 42.6807 176.46 41.5662V35.1136H179.134V41.6665C179.134 43.3828 178.666 44.7034 177.73 45.6284C176.794 46.5533 175.496 47.0158 173.835 47.0158ZM188.163 46.8152V35.1136H190.871V44.6086H196.738V46.8152H188.163ZM205.77 46.8152V37.3202H202.026V35.1136H212.223V37.3202H208.479V46.8152H205.77ZM220.032 46.8152V35.1136H222.741V46.8152H220.032ZM231.87 46.8152V35.1136H234.11L241.014 43.5388H239.927V35.1136H242.602V46.8152H240.379L233.458 38.3901H234.545V46.8152H231.87ZM257.373 47.0158C256.448 47.0158 255.595 46.871 254.815 46.5812C254.046 46.2803 253.372 45.8568 252.793 45.3107C252.224 44.7647 251.779 44.1239 251.455 43.3883C251.143 42.6528 250.987 41.8448 250.987 40.9644C250.987 40.084 251.143 39.2761 251.455 38.5405C251.779 37.805 252.23 37.1642 252.809 36.6181C253.389 36.072 254.069 35.6541 254.849 35.3644C255.629 35.0635 256.487 34.913 257.423 34.913C258.46 34.913 259.39 35.0858 260.215 35.4312C261.051 35.7767 261.753 36.2782 262.321 36.9357L260.583 38.5405C260.159 38.0948 259.697 37.766 259.195 37.5543C258.694 37.3314 258.148 37.2199 257.557 37.2199C256.989 37.2199 256.47 37.3091 256.002 37.4874C255.534 37.6657 255.127 37.922 254.782 38.2563C254.448 38.5907 254.186 38.9863 253.996 39.4432C253.818 39.9001 253.729 40.4072 253.729 40.9644C253.729 41.5105 253.818 42.012 253.996 42.4689C254.186 42.9258 254.448 43.327 254.782 43.6725C255.127 44.0068 255.529 44.2632 255.986 44.4415C256.454 44.6198 256.966 44.7089 257.523 44.7089C258.058 44.7089 258.577 44.6254 259.078 44.4582C259.591 44.2799 260.087 43.9846 260.566 43.5722L262.104 45.5281C261.469 46.0073 260.727 46.375 259.88 46.6313C259.045 46.8877 258.209 47.0158 257.373 47.0158ZM262.104 45.5281L259.63 45.177V40.7805H262.104V45.5281Z" fill="#12324C"/>
<defs>
<clipPath id="clip0_2_24">
<rect width="76" height="46" fill="white"/>
</clipPath>
</defs>
</svg>
